<svg xmlns="http://www.w3.org/2000/svg" viewBox="0 0 900 590" width="900" height="590" font-family="Arial, sans-serif">

  <!-- Background -->
  <rect width="900" height="590" fill="#F0F3F4"/>

  <!-- Title -->
  <text x="450" y="30" text-anchor="middle" font-size="16" font-weight="bold" fill="#1B2631">Topologia de Rede — VitaClínica</text>
  <line x1="120" y1="38" x2="780" y2="38" stroke="#AAB7B8" stroke-width="1"/>

  <!-- ===================== UNIDADE CENTRAL ===================== -->
  <rect x="12" y="48" width="390" height="350" rx="8" fill="#EAF2FB" stroke="#2471A3" stroke-width="2"/>
  <rect x="12" y="48" width="390" height="30" rx="8" fill="#2471A3"/>
  <text x="207" y="68" text-anchor="middle" font-size="13" font-weight="bold" fill="white">Unidade Central</text>

  <!-- Server Rack Central -->
  <rect x="38" y="95" width="78" height="95" rx="3" fill="#1C2833"/>
  <rect x="43" y="103" width="68" height="7" rx="1" fill="#5D6D7E"/>
  <rect x="43" y="114" width="68" height="7" rx="1" fill="#5D6D7E"/>
  <rect x="43" y="125" width="68" height="7" rx="1" fill="#5D6D7E"/>
  <rect x="43" y="136" width="68" height="7" rx="1" fill="#5D6D7E"/>
  <rect x="43" y="147" width="68" height="7" rx="1" fill="#5D6D7E"/>
  <rect x="43" y="158" width="68" height="7" rx="1" fill="#5D6D7E"/>
  <circle cx="100" cy="180" r="5" fill="#2ECC71"/>
  <text x="77" y="204" text-anchor="middle" font-size="9" fill="#1B2631" font-weight="bold">Servidor PEP</text>
  <text x="77" y="215" text-anchor="middle" font-size="9" fill="#5D6D7E">+ Banco de Dados</text>

  <!-- NAS Central -->
  <rect x="200" y="95" width="118" height="52" rx="3" fill="#1A5276"/>
  <rect x="206" y="103" width="106" height="11" rx="2" fill="#2E86C1"/>
  <rect x="206" y="118" width="106" height="11" rx="2" fill="#2E86C1"/>
  <rect x="206" y="133" width="106" height="11" rx="2" fill="#2E86C1"/>
  <circle cx="302" cy="138" r="4" fill="#2ECC71"/>
  <text x="259" y="162" text-anchor="middle" font-size="9" fill="#1B2631" font-weight="bold">NAS Local</text>
  <text x="259" y="173" text-anchor="middle" font-size="9" fill="#117A65">(Cópia 1 — 3-2-1)</text>

  <!-- Network lines Central: server+NAS → switch -->
  <line x1="77" y1="190" x2="180" y2="230" stroke="#AAB7B8" stroke-width="1.5"/>
  <line x1="259" y1="147" x2="210" y2="230" stroke="#AAB7B8" stroke-width="1.5"/>

  <!-- Switch Central -->
  <rect x="140" y="230" width="110" height="22" rx="3" fill="#717D7E"/>
  <circle cx="158" cy="241" r="4" fill="#2ECC71"/>
  <circle cx="172" cy="241" r="4" fill="#2ECC71"/>
  <circle cx="186" cy="241" r="4" fill="#2ECC71"/>
  <circle cx="200" cy="241" r="4" fill="#F39C12"/>
  <circle cx="214" cy="241" r="4" fill="#2ECC71"/>
  <circle cx="228" cy="241" r="4" fill="#2ECC71"/>
  <text x="195" y="267" text-anchor="middle" font-size="9" fill="#1B2631">Switch</text>

  <!-- Workstations Central -->
  <rect x="30" y="285" width="42" height="30" rx="2" fill="#717D7E"/>
  <rect x="34" y="289" width="34" height="19" fill="#AED6F1"/>
  <rect x="42" y="317" width="18" height="4" fill="#717D7E"/>
  <text x="51" y="332" text-anchor="middle" font-size="8" fill="#1B2631">WS-01</text>

  <rect x="92" y="285" width="42" height="30" rx="2" fill="#717D7E"/>
  <rect x="96" y="289" width="34" height="19" fill="#AED6F1"/>
  <rect x="104" y="317" width="18" height="4" fill="#717D7E"/>
  <text x="113" y="332" text-anchor="middle" font-size="8" fill="#1B2631">WS-02</text>

  <rect x="154" y="285" width="42" height="30" rx="2" fill="#717D7E"/>
  <rect x="158" y="289" width="34" height="19" fill="#AED6F1"/>
  <rect x="166" y="317" width="18" height="4" fill="#717D7E"/>
  <text x="175" y="332" text-anchor="middle" font-size="8" fill="#1B2631">WS-03</text>

  <rect x="245" y="283" width="100" height="32" rx="3" fill="#1A5276"/>
  <rect x="250" y="288" width="90" height="18" fill="#2874A6"/>
  <circle cx="338" cy="308" r="3" fill="#2ECC71"/>
  <text x="295" y="326" text-anchor="middle" font-size="8" fill="#1B2631">Servidor Financeiro</text>

  <!-- Lines switch → workstations Central -->
  <line x1="180" y1="252" x2="51" y2="285" stroke="#AAB7B8" stroke-width="1.2"/>
  <line x1="185" y1="252" x2="113" y2="285" stroke="#AAB7B8" stroke-width="1.2"/>
  <line x1="195" y1="252" x2="175" y2="285" stroke="#AAB7B8" stroke-width="1.2"/>
  <line x1="210" y1="252" x2="295" y2="283" stroke="#AAB7B8" stroke-width="1.2"/>

  <!-- Firewall Central -->
  <rect x="148" y="358" width="105" height="26" rx="4" fill="#CB4335"/>
  <text x="200" y="375" text-anchor="middle" font-size="10" fill="white" font-weight="bold">Firewall / Router</text>
  <line x1="195" y1="252" x2="200" y2="358" stroke="#AAB7B8" stroke-width="1.5"/>

  <!-- ===================== UNIDADE BAIRRO ===================== -->
  <rect x="498" y="48" width="390" height="350" rx="8" fill="#EAF2FB" stroke="#2471A3" stroke-width="2"/>
  <rect x="498" y="48" width="390" height="30" rx="8" fill="#2471A3"/>
  <text x="693" y="68" text-anchor="middle" font-size="13" font-weight="bold" fill="white">Unidade Bairro</text>

  <!-- Server Rack Bairro -->
  <rect x="522" y="95" width="78" height="95" rx="3" fill="#1C2833"/>
  <rect x="527" y="103" width="68" height="7" rx="1" fill="#5D6D7E"/>
  <rect x="527" y="114" width="68" height="7" rx="1" fill="#5D6D7E"/>
  <rect x="527" y="125" width="68" height="7" rx="1" fill="#5D6D7E"/>
  <rect x="527" y="136" width="68" height="7" rx="1" fill="#5D6D7E"/>
  <rect x="527" y="147" width="68" height="7" rx="1" fill="#5D6D7E"/>
  <rect x="527" y="158" width="68" height="7" rx="1" fill="#5D6D7E"/>
  <circle cx="584" cy="180" r="5" fill="#2ECC71"/>
  <text x="561" y="204" text-anchor="middle" font-size="9" fill="#1B2631" font-weight="bold">Servidor</text>
  <text x="561" y="215" text-anchor="middle" font-size="9" fill="#5D6D7E">Agendamento</text>

  <!-- NAS Bairro -->
  <rect x="684" y="95" width="118" height="52" rx="3" fill="#1A5276"/>
  <rect x="690" y="103" width="106" height="11" rx="2" fill="#2E86C1"/>
  <rect x="690" y="118" width="106" height="11" rx="2" fill="#2E86C1"/>
  <rect x="690" y="133" width="106" height="11" rx="2" fill="#2E86C1"/>
  <circle cx="786" cy="138" r="4" fill="#2ECC71"/>
  <text x="743" y="162" text-anchor="middle" font-size="9" fill="#1B2631" font-weight="bold">NAS Local</text>
  <text x="743" y="173" text-anchor="middle" font-size="9" fill="#117A65">(Cópia 1 — 3-2-1)</text>

  <!-- Lines Bairro -->
  <line x1="561" y1="190" x2="660" y2="230" stroke="#AAB7B8" stroke-width="1.5"/>
  <line x1="743" y1="147" x2="695" y2="230" stroke="#AAB7B8" stroke-width="1.5"/>

  <!-- Switch Bairro -->
  <rect x="624" y="230" width="110" height="22" rx="3" fill="#717D7E"/>
  <circle cx="642" cy="241" r="4" fill="#2ECC71"/>
  <circle cx="656" cy="241" r="4" fill="#2ECC71"/>
  <circle cx="670" cy="241" r="4" fill="#2ECC71"/>
  <circle cx="684" cy="241" r="4" fill="#F39C12"/>
  <circle cx="698" cy="241" r="4" fill="#2ECC71"/>
  <circle cx="712" cy="241" r="4" fill="#2ECC71"/>
  <text x="679" y="267" text-anchor="middle" font-size="9" fill="#1B2631">Switch</text>

  <!-- Workstations Bairro -->
  <rect x="514" y="285" width="42" height="30" rx="2" fill="#717D7E"/>
  <rect x="518" y="289" width="34" height="19" fill="#AED6F1"/>
  <rect x="526" y="317" width="18" height="4" fill="#717D7E"/>
  <text x="535" y="332" text-anchor="middle" font-size="8" fill="#1B2631">WS-01</text>

  <rect x="576" y="285" width="42" height="30" rx="2" fill="#717D7E"/>
  <rect x="580" y="289" width="34" height="19" fill="#AED6F1"/>
  <rect x="588" y="317" width="18" height="4" fill="#717D7E"/>
  <text x="597" y="332" text-anchor="middle" font-size="8" fill="#1B2631">WS-02</text>

  <rect x="638" y="285" width="42" height="30" rx="2" fill="#717D7E"/>
  <rect x="642" y="289" width="34" height="19" fill="#AED6F1"/>
  <rect x="650" y="317" width="18" height="4" fill="#717D7E"/>
  <text x="659" y="332" text-anchor="middle" font-size="8" fill="#1B2631">WS-03</text>

  <rect x="700" y="285" width="42" height="30" rx="2" fill="#717D7E"/>
  <rect x="704" y="289" width="34" height="19" fill="#AED6F1"/>
  <rect x="712" y="317" width="18" height="4" fill="#717D7E"/>
  <text x="721" y="332" text-anchor="middle" font-size="8" fill="#1B2631">WS-04</text>

  <!-- Lines switch → workstations Bairro -->
  <line x1="660" y1="252" x2="535" y2="285" stroke="#AAB7B8" stroke-width="1.2"/>
  <line x1="665" y1="252" x2="597" y2="285" stroke="#AAB7B8" stroke-width="1.2"/>
  <line x1="675" y1="252" x2="659" y2="285" stroke="#AAB7B8" stroke-width="1.2"/>
  <line x1="690" y1="252" x2="721" y2="285" stroke="#AAB7B8" stroke-width="1.2"/>

  <!-- Firewall Bairro -->
  <rect x="635" y="358" width="105" height="26" rx="4" fill="#CB4335"/>
  <text x="687" y="375" text-anchor="middle" font-size="10" fill="white" font-weight="bold">Firewall / Router</text>
  <line x1="679" y1="252" x2="687" y2="358" stroke="#AAB7B8" stroke-width="1.5"/>

  <!-- ===================== VPN CONNECTION ===================== -->
  <!-- Lines from firewalls down to VPN bar -->
  <line x1="200" y1="384" x2="200" y2="420" stroke="#E74C3C" stroke-width="2"/>
  <line x1="687" y1="384" x2="687" y2="420" stroke="#E74C3C" stroke-width="2"/>
  <!-- Horizontal VPN tunnel -->
  <line x1="200" y1="420" x2="687" y2="420" stroke="#E74C3C" stroke-width="2.5" stroke-dasharray="10,5"/>
  <!-- Arrows -->
  <polygon points="687,414 700,420 687,426" fill="#E74C3C"/>
  <polygon points="200,414 187,420 200,426" fill="#E74C3C"/>
  <!-- VPN Label -->
  <rect x="382" y="408" width="136" height="22" rx="4" fill="#E74C3C"/>
  <text x="450" y="423" text-anchor="middle" font-size="10" fill="white" font-weight="bold">VPN — OpenVPN</text>

  <!-- ===================== CLOUD (Amazon S3) ===================== -->
  <ellipse cx="270" cy="515" rx="75" ry="32" fill="#D6EAF8" stroke="#2E86C1" stroke-width="1.5"/>
  <ellipse cx="225" cy="522" rx="42" ry="25" fill="#D6EAF8" stroke="#2E86C1" stroke-width="1.5"/>
  <ellipse cx="315" cy="522" rx="42" ry="25" fill="#D6EAF8" stroke="#2E86C1" stroke-width="1.5"/>
  <rect x="200" y="522" width="140" height="22" fill="#D6EAF8"/>
  <text x="270" y="515" text-anchor="middle" font-size="11" font-weight="bold" fill="#1A5276">Amazon S3</text>
  <text x="270" y="530" text-anchor="middle" font-size="9" fill="#5D6D7E">sa-east-1 (São Paulo)</text>
  <text x="270" y="542" text-anchor="middle" font-size="9" fill="#117A65">Cópia 2 — Nuvem</text>

  <!-- ===================== OFF-SITE HD ===================== -->
  <rect x="620" y="490" width="120" height="58" rx="6" fill="#D5F5E3" stroke="#1E8449" stroke-width="1.5"/>
  <rect x="628" y="498" width="104" height="24" rx="3" fill="#1E8449"/>
  <text x="680" y="514" text-anchor="middle" font-size="10" fill="white" font-weight="bold">HD Externo</text>
  <text x="680" y="527" text-anchor="middle" font-size="9" fill="#1B2631">Off-site (30+ km)</text>
  <text x="680" y="540" text-anchor="middle" font-size="9" fill="#117A65">Cópia 3 — Off-site</text>

  <!-- ===================== CONNECTION LINES ===================== -->
  <!-- Central Firewall → Cloud -->
  <line x1="200" y1="420" x2="240" y2="495" stroke="#2E86C1" stroke-width="1.5" stroke-dasharray="6,3"/>
  <!-- Bairro Firewall → Cloud -->
  <line x1="687" y1="420" x2="305" y2="495" stroke="#2E86C1" stroke-width="1.5" stroke-dasharray="6,3"/>
  <!-- Central Firewall → Off-site -->
  <line x1="200" y1="420" x2="620" y2="510" stroke="#1E8449" stroke-width="1.5" stroke-dasharray="6,3"/>

  <!-- ===================== LEGEND ===================== -->
  <rect x="370" y="460" width="215" height="100" rx="5" fill="white" stroke="#AAB7B8" stroke-width="1"/>
  <text x="477" y="478" text-anchor="middle" font-size="10" font-weight="bold" fill="#1B2631">Legenda</text>
  <line x1="382" y1="490" x2="407" y2="490" stroke="#AAB7B8" stroke-width="1.5"/>
  <text x="413" y="494" font-size="9" fill="#1B2631">Rede Local (LAN)</text>
  <line x1="382" y1="507" x2="407" y2="507" stroke="#E74C3C" stroke-width="2" stroke-dasharray="6,3"/>
  <text x="413" y="511" font-size="9" fill="#1B2631">Túnel VPN</text>
  <line x1="382" y1="524" x2="407" y2="524" stroke="#2E86C1" stroke-width="1.5" stroke-dasharray="5,3"/>
  <text x="413" y="528" font-size="9" fill="#1B2631">Backup Nuvem (Cópia 2)</text>
  <line x1="382" y1="541" x2="407" y2="541" stroke="#1E8449" stroke-width="1.5" stroke-dasharray="5,3"/>
  <text x="413" y="545" font-size="9" fill="#1B2631">Backup Off-site (Cópia 3)</text>

  <!-- ===================== INTERNET LABEL ===================== -->
  <text x="450" y="448" text-anchor="middle" font-size="9" fill="#5D6D7E">Internet</text>
  <line x1="405" y1="443" x2="430" y2="443" stroke="#AAB7B8" stroke-width="1" stroke-dasharray="3,2"/>
  <line x1="470" y1="443" x2="495" y2="443" stroke="#AAB7B8" stroke-width="1" stroke-dasharray="3,2"/>

</svg>
